PathFileType	4	(X/Y/Z)	C:/Users/beibeiliu/ov580/test_trc\sequence.32_training_dense_left.trc
DataRate	CameraRate	NumFrames	NumMarkers	Units	OrigDataRate	OrigDataStartFrame	OrigNumFrames
120	120	24	19	mm	120	51	200
Frame#	Time	ThumbCMC			ThumbMCP			ThumbIP			ThumbTip			IndexMCP			IndexPIP			IndexTip			MiddleMCP			MiddlePIP			MiddleTip			RingMCP			RingPIP			RingTip			PinkyMCP			PinkyPIP			PinkyTip			BackHand1			BackHand2			BackHand3	
		X0	Y0	Z0	X1	Y1	Z1	X2	Y2	Z2	X3	Y3	Z3	X4	Y4	Z4	X5	Y5	Z5	X6	Y6	Z6	X7	Y7	Z7	X8	Y8	Z8	X9	Y9	Z9	X10	Y10	Z10	X11	Y11	Z11	X12	Y12	Z12	X13	Y13	Z13	X14	Y14	Z14	X15	Y15	Z15	X16	Y16	Z16	X17	Y17	Z17	X18	Y18	Z18	
50	0.416667	-164.822	74.7369	30.7081	-145.543	75.6917	6.69674	-134.823	72.9634	-12.4253	-122.92	69.7293	-32.0552	-175.066	66.3744	-34.477	-166.844	61.0218	-61.0446	-152.382	61.0009	-77.4009	-189.675	39.9943	-37.7953	-189.921	34.2969	-62.2238	-189.439	25.9887	-84.34	-191.557	22.0468	-27.1586	-189.789	10.8073	-51.7931	-184.136	4.7701	-73.2379	-187.565	1.23953	-14.2403	-185.101	-9.18471	-26.012	-184.366	-16.3243	-42.9402	-199.736	33.0836	15.0994	-203.466	37.2956	37.1269	-196.055	59.383	20.8001	
51	0.425	-147.973	64.2614	30.7254	-126.274	55.336	9.12143	-120.08	46.4525	-11.4722	-110.925	36.9999	-33.5742	-165.509	70.0884	-35.4458	-159.707	69.4022	-58.9093	-152.436	66.1851	-81.9584	-185.394	52.5346	-38.2809	-185.827	51.3709	-62.5002	-183.443	37.1232	-92.4122	-190.884	35.4522	-32.8835	-186.777	26.3313	-57.7934	-178.238	13.64	-73.1069	-198.168	12.957	-17.4566	-194.561	4.75051	-38.9784	-189.1	-0.343417	-55.4926	-196.32	44.0089	11.2207	-199.666	43.9669	36.6446	-183.38	67.7325	20.751	
52	0.433333	-147.094	54.5188	26.9888	-130.253	39.6243	8.79762	-120.057	30.9228	-18.8719	-118.933	19.23	-35.4815	-159.765	71.2678	-33.7381	-154.362	70.5953	-57.8544	-147.058	64.0577	-81.2114	-182.189	62.3477	-43.1348	-177.044	59.0938	-66.7621	-164.94	39.3887	-87.6112	-194.218	45.2112	-33.3834	-185.402	38.0557	-59.5866	-173.021	19.1971	-72.0986	-207.183	30.4547	-22.1795	-206.118	24.0031	-45.0004	-202.62	14.2487	-64.7207	-194.731	53.3321	8.76578	-200.35	53.8671	37.6808	-175.214	71.0876	19.5686	
53	0.441667	-142.617	51.887	27.8482	-128.668	35.3285	1.79313	-121.719	25.0584	-19.6811	-124.707	14.4829	-36.0823	-152.343	74.7097	-34.0406	-144.923	70.7319	-60.6043	-137.141	58.9521	-78.1113	-171.167	71.8265	-44.353	-167.988	59.968	-71.1995	-159.107	32.4067	-78.4597	-187.406	60.7745	-37.5685	-185.034	48.8831	-60.4899	-171.798	29.3497	-68.4575	-206.51	48.2487	-24.3492	-208.137	42.6589	-47.6831	-204.036	31.755	-65.5968	-195.728	63.2896	11.1656	-195.437	63.4386	34.0356	-167.887	75.336	18.904	
54	0.45	-140.806	52.2196	20.8408	-130.198	34.2338	1.58286	-123.192	23.7994	-21.1897	-128.104	12.9196	-38.8868	-149.376	75.7278	-37.4127	-140.9	66.4992	-65.7697	-134.65	47.4817	-76.0363	-173.292	72.6401	-44.9292	-164.379	57.9589	-71.3547	-155.063	28.6896	-69.426	-190.301	62.7396	-38.152	-184.734	48.9779	-63.9009	-170.469	29.0533	-64.0181	-206.951	52.2718	-29.1823	-207.657	45.7602	-50.2335	-197.402	31.6839	-64.9572	-192.956	66.7473	6.78515	-194.303	62.8782	32.7468	-165.262	74.0162	18.2409	
55	0.458333	-143.288	47.3369	18.7842	-129.437	28.9529	-4.62723	-128.351	19.3987	-24.4287	-129.154	5.9757	-45.7044	-151.177	71.2468	-39.0064	-143.118	59.9266	-65.9095	-136.245	34.5056	-72.1287	-170.937	69.7411	-47.196	-163.511	54.4335	-73.9382	-158.479	25.9077	-67.5567	-187.239	60.4787	-38.8067	-182.44	44.074	-66.8085	-170.064	23.6774	-62.976	-207.624	47.5911	-30.5145	-205.531	42.0182	-51.9645	-193.221	20.3038	-65.58	-189.486	61.994	4.76264	-190.375	61.5042	28.1877	-167.169	71.6863	18.2975	
56	0.466667	-141.262	42.0536	12.9593	-128.717	22.5392	-8.58888	-126.129	11.901	-30.0846	-131.454	-0.739817	-48.2221	-148.685	65.7297	-45.5816	-141.032	52.676	-69.0713	-135.091	26.8834	-71.072	-171.446	64.5566	-53.0808	-166.337	46.0456	-76.9499	-159.332	17.4561	-65.3359	-188.277	53.9975	-42.9504	-183.241	37.8607	-69.4812	-168.285	16.5777	-63.3839	-204.487	42.1127	-31.92	-205.734	35.6765	-55.081	-193.199	14.417	-67.2686	-193.451	57.3596	-3.31172	-193.8	56.2351	26.8138	-164.507	64.8942	9.94049	
57	0.475	-142.068	34.6303	12.3467	-130.954	17.0417	-10.5253	-131.408	6.51452	-35.1652	-136.976	-4.39984	-51.905	-145.705	58.6452	-52.2001	-142.397	44.7325	-74.4454	-136.846	17.1233	-72.394	-170.821	59.4583	-56.926	-166.962	45.6116	-81.0263	-158.6	12.5803	-69.2797	-186.584	50.9203	-52.2781	-180.962	36.2133	-74.481	-170.945	14.0829	-70.4743	-205.672	37.5857	-37.8063	-206.955	26.9996	-62.1908	-195.169	10.0269	-72.6685	-190.892	50.3448	-5.15177	-187.335	52.7052	20.6296	-164.539	59.2971	7.80111	
58	0.483333	-138.334	30.7151	9.45126	-131.926	12.8582	-14.5537	-129.019	3.28771	-34.8168	-136.624	-7.57355	-57.238	-146.777	55.7246	-52.5119	-143.187	43.306	-77.4348	-141.06	11.0607	-73.5746	-170.257	56.0439	-57.8961	-165.454	37.938	-84.5054	-159.216	9.62689	-72.0571	-187.621	48.7174	-52.1218	-183.397	32.5721	-76.8759	-173.326	11.1043	-72.7384	-206.903	37.2052	-41.9822	-205.401	28.065	-64.1066	-191.852	6.0527	-72.1822	-185.893	51.5995	-10.5198	-188.624	49.823	18.3165	-163.931	57.1677	2.81184	
59	0.491667	-137.874	29.2346	10.8293	-131.074	12.5158	-13.9694	-127.856	4.01948	-34.9104	-134.769	-5.16402	-56.5767	-143.679	55.0551	-56.3477	-139.186	37.6493	-77.5662	-142.667	13.2428	-71.8872	-169.56	55.2395	-61.6027	-164.847	38.2851	-83.6386	-163.711	8.94378	-68.1103	-186.69	47.9084	-56.095	-179.612	28.4851	-75.1268	-173.019	3.58941	-63.2798	-204.493	36.6401	-40.9884	-201.533	20.776	-64.4294	-187.746	5.14799	-63.0281	-190.355	51.3466	-5.86462	-189.413	51.5983	18.0332	-158.933	57.0625	3.77531	
60	0.5	-137.573	30.4852	14.2242	-129.59	17.647	-10.2796	-122.671	10.8466	-36.1498	-126.81	4.92465	-54.3567	-147.991	54.6985	-47.8292	-146.256	40.5251	-73.815	-146.585	9.92518	-62.0754	-166.009	54.9333	-57.1713	-166.506	36.423	-78.503	-158.577	7.53871	-58.8244	-186.878	46.7219	-52.0754	-182.619	24.9003	-69.824	-172.307	5.55021	-55.9544	-201.571	35.7912	-40.3945	-198.584	18.1218	-57.99	-183.393	-0.952401	-52.5228	-187.144	52.3326	-6.28081	-186.558	49.5051	23.666	-164.329	54.3501	7.23493	
61	0.508333	-137.412	33.3608	16.7032	-126.011	24.789	-6.56877	-118.434	22.6439	-28.3897	-114.915	19.7515	-51.7938	-154.249	53.4171	-46.0138	-151.374	34.6283	-69.4362	-144.8	9.27306	-53.4034	-170.801	50.6201	-55.601	-169.468	26.9588	-72.2781	-161.131	5.19128	-50.5317	-192.136	41.6324	-46.7489	-182.632	20.5908	-63.6575	-175.233	0.367119	-44.663	-206.184	31.0223	-37.9769	-195.502	12.0515	-51.2964	-179.536	-0.673799	-38.5181	-191.04	50.0554	-2.10212	-187.934	47.71	24.7909	-160.924	56.5736	13.5088	
62	0.516667	-136.564	39.1417	23.2322	-125.078	39.1501	-2.99762	-118.343	40.7554	-20.0715	-111.463	44.4732	-43.0763	-154.616	48.727	-46.5694	-150.527	26.8935	-62.0705	-146.678	5.57356	-37.6164	-172.836	46.0214	-49.0855	-166.528	20.4136	-66.1952	-161.621	-1.24111	-44.3702	-192.346	37.0389	-42.7175	-182.245	17.8446	-57.8635	-170.834	-2.74178	-38.2493	-204.932	28.6407	-29.0534	-196.096	9.79133	-44.2091	-177.267	-4.73951	-31.1631	-188.565	50.2734	9.00356	-184.102	48.1569	31.6072	-162.756	56.8287	16.3139	
63	0.525	-137.148	49.4919	25.9823	-125.889	53.2861	3.573	-119.833	59.5636	-15.5474	-112.186	65.5006	-34.8134	-154.44	47.2399	-42.4167	-148.541	20.3153	-52.1772	-141.169	5.4495	-26.9876	-175.098	44.118	-46.7533	-168.016	21.8006	-62.0181	-154.983	-2.24877	-43.899	-191.833	39.2138	-34.3824	-182.807	18.4379	-53.6925	-170.66	-2.2752	-41.6846	-203.599	32.6413	-19.7884	-201.043	14.4404	-39.4251	-177.144	1.81067	-34.1847	-186.898	53.4392	11.2859	-188.125	54.0099	37.9709	-162.838	65.0867	16.7162	
64	0.533333	-140.35	59.269	27.6185	-126.21	62.4466	8.29514	-119.852	73.6885	-16.2098	-115.081	76.5853	-30.7728	-155.104	48.5627	-41.2005	-146.773	21.3341	-46.885	-137.506	7.52918	-26.5491	-173.747	49.7576	-43.9522	-169.058	23.7408	-60.4896	-157.107	-2.7167	-49.9128	-195.885	44.1428	-33.2082	-188.97	26.7818	-53.012	-172.319	4.16744	-50.1246	-204.663	38.989	-15.9987	-207.386	25.7618	-37.4517	-192.579	6.64635	-42.2746	-189.393	58.8519	13.8016	-185.73	60.4121	38.653	-163.027	69.9175	19.1701	
65	0.541667	-137.463	63.355	30.1157	-125.301	67.2804	5.40983	-118.449	69.4676	-11.1896	-113.003	74.5287	-31.2994	-151.035	56.8694	-35.6499	-146.528	27.5681	-46.698	-138.478	4.76293	-29.4471	-171.845	55.7243	-41.9119	-172.412	33.2744	-61.1055	-165.926	6.9514	-64.1426	-190.759	53.0433	-31.5309	-191.252	37.9462	-53.9401	-183.704	15.7689	-62.2331	-206.486	47.1615	-14.0669	-216.299	37.2092	-31.32	-205.989	24.4255	-50.2688	-186.43	63.7307	17.3172	-187.643	68.4165	38.0088	-164.093	76.128	22.514	
66	0.55	-132.207	63.7026	30.8137	-117.49	60.3966	8.86349	-114.334	58.6963	-14.8736	-109.799	55.854	-35.8463	-143.638	62.1825	-34.0891	-140.339	38.2822	-51.9621	-135.851	10.1624	-46.2361	-169.631	62.6209	-41.5841	-167.231	51.826	-62.4788	-166.896	23.6421	-79.3055	-188.857	60.1437	-30.3964	-194.882	52.3451	-53.3137	-190.645	39.1573	-70.3803	-204.02	52.65	-9.07117	-214.559	48.3778	-28.8975	-222.333	37.2165	-46.6681	-182.178	70.8045	16.5932	-183.32	72.394	37.6536	-158.576	80.6219	23.3822	
67	0.558333	-129.752	57.604	28.3386	-118.319	41.8293	7.36294	-115.434	33.0694	-17.0452	-123.219	23.832	-36.7798	-142.217	63.2911	-35.276	-135.853	48.9104	-56.9502	-131.343	25.4945	-68.8834	-167.189	66.0866	-40.1174	-168.422	61.0319	-65.9715	-171.729	49.5503	-88.3873	-186.209	62.0732	-31.0311	-191.675	58.464	-56.3338	-192.651	52.5656	-75.9531	-205.996	50.2932	-16.8734	-216.013	45.1878	-32.2793	-223.973	40.7971	-50.7187	-181.685	71.4566	13.4053	-180.322	72.2935	34.524	-155.926	77.9864	21.0124	
68	0.566667	-135.255	52.5328	27.3102	-124.72	30.2893	6.8515	-126.663	19.2562	-12.0049	-131.369	4.25679	-32.0725	-145.393	64.7925	-38.1129	-140.52	57.5584	-63.3818	-138.163	46.6554	-80.7532	-172.892	65.7046	-41.0877	-175.154	63.4585	-63.1011	-175.545	61.408	-88.1257	-188.741	56.9065	-31.6583	-194.99	53.5723	-55.1573	-200.42	50.5387	-72.923	-210.08	41.5823	-17.493	-215.315	37.5127	-33.9927	-223.144	38.3637	-48.3396	-186.633	66.0849	8.12101	-189.672	69.8158	33.8053	-163.611	73.845	18.2423	
69	0.575	-148.499	51.9366	29.0469	-136.94	28.7088	6.5747	-133.939	15.4962	-11.8548	-136.544	0.658252	-27.911	-151.16	68.6181	-35.7062	-149.311	65.2134	-60.2307	-146.721	63.1074	-79.6455	-180.24	63.6513	-43.8228	-181.434	62.2819	-63.0795	-181.161	60.7724	-89.9754	-199.211	51.8191	-33.3449	-202.256	48.6826	-53.4133	-201.314	45.8545	-73.8154	-217.311	41.4011	-19.3924	-220.593	39.0537	-33.9357	-229.935	41.847	-43.0909	-198.176	65.1966	12.3471	-199.854	66.6679	38.0343	-173.359	73.6293	20.4511	
70	0.583333	-152.991	51.6729	33.2494	-146.578	31.7623	12.672	-138.228	19.0063	-7.22463	-136.408	7.51678	-25.7964	-156.306	69.987	-31.2031	-151.874	68.9405	-49.5552	-151.359	67.8646	-76.6812	-178.441	62.7449	-38.6665	-179.829	57.3147	-61.1447	-174.363	52.0686	-85.029	-203.433	55.3855	-31.2895	-201.604	51.007	-56.7316	-203.642	47.8833	-77.3092	-223.965	50.016	-17.7292	-229.72	49.2211	-28.3973	-235.762	59.0432	-45.2398	-204.747	67.1927	11.7345	-201.75	69.3303	39.1036	-178.67	74.4512	24.7299	
71	0.591667	-156.169	52.8376	36.0473	-144.574	35.8502	20.7695	-138.366	29.4788	-1.99933	-128.674	20.1214	-19.9734	-161.522	67.4119	-27.9176	-154.272	63.161	-50.0312	-150.852	58.6152	-72.684	-179.409	66.3174	-33.8733	-175.112	59.1128	-56.5972	-172.997	50.1931	-83.4874	-202.072	64.5806	-29.4425	-203.922	63.9378	-47.2285	-205.43	64.4081	-73.0567	-223.212	59.2384	-8.23748	-230.515	65.0741	-25.5362	-237.419	78.2169	-38.0914	-204.677	71.2083	15.1063	-205.604	73.0732	42.0361	-176.334	76.3122	28.7542	
72	0.6	-154.113	53.44	45.5051	-141.632	43.5165	23.9426	-129.212	40.9779	3.35745	-123.648	37.9339	-16.1006	-157.361	68.2185	-24.6445	-153.918	60.0908	-44.7436	-148.648	49.4157	-63.7103	-180.024	75.1339	-31.6992	-179.164	70.8761	-55.8395	-177.589	66.225	-78.713	-202.084	76.6875	-21.7907	-202.235	81.6849	-43.5788	-202.344	85.9615	-65.3818	-217.833	70.7092	-4.21282	-229.056	78.5516	-17.9717	-238.793	90.7387	-31.3486	-202.978	77.6085	23.8033	-201.095	76.6742	50.9135	-176.066	77.9125	36.0515	
73	0.608333	-152.009	55.6912	47.1898	-139.774	49.3535	22.2619	-127.367	46.6968	0.310837	-117.389	41.524	-13.3928	-152.127	71.5435	-20.0188	-146.481	61.6624	-42.9797	-148.269	47.8441	-64.382	-174.899	81.4096	-25.816	-177.037	81.2779	-48.5621	-177.671	78.5419	-78.4811	-196.556	81.5023	-16.0912	-198.476	86.7348	-41.9827	-201.517	89.7415	-64.0109	-217.163	75.6946	-5.52751	-228.262	79.6137	-20.1595	-231.065	85.3702	-41.8519	-195.109	79.4888	24.3903	-200.759	77.9597	48.6882	-172.282	79.8199	36.4817	
